:SAMPLES-PER-SECOND 30
:FULLY-SPECIFIED
:DEGREES
703
root  -12.5842 38.7278 4.47628 -94.4087 -86.3316 86.5795
RightUpLeg  -19.6983 -0.585549 -10.3053
RightLeg  18.3258 4.97848 1.29047
RightFoot  -4.12626 -0.482491 7.18842
RightToes  -5.8209e-011 0 -3.6325e-017
Spine  9.36773 -1.83934 -2.75482
Spine1  10.0713 -2.38798 -0.105206
HEad  -13.8424 3.49735 -4.30448
LeftShoulder1  0.0502293 3.35563 -27.729
LeftArm  1.5698 4.46851 -42.9333
LeftForeArm  17.7778 -33.7801 -6.49018
LeftHand  -0.0471666 4.92867 7.14841
RightShoulder  -0.322975 -4.54615 23.8919
RightArm  9.5299 -5.01118 31.8033
RightForeArm  0.794037 15.4118 4.4472
RightHand  -0.436231 4.86481 -5.23357
LeftUpLeg  7.37088 4.31647 -9.05643
LeftLeg  17.6803 0.927246 0.63137
LeftFoot  -17.693 0.582136 8.55512
LeftToes  -8.31281e-010 4.41007e-011 3.74621e-011
704
root  -14.0246 38.5968 4.36427 -85.3044 -85.8707 77.7478
RightUpLeg  -19.2009 -5.75598 -9.34912
RightLeg  6.47375 8.44604 -0.305236
RightFoot  -4.90761 -0.450131 7.42891
RightToes  -5.8209e-011 0 -3.6325e-017
Spine  8.72669 -2.11485 -2.67358
Spine1  10.0525 -2.65473 0.329156
HEad  -13.5732 3.6205 -4.49684
LeftShoulder1  0.0615943 3.32185 -27.6375
LeftArm  0.87007 2.27333 -43.0289
LeftForeArm  17.6059 -33.4799 -6.42273
LeftHand  -0.0113361 5.56305 7.23458
RightShoulder  -0.338785 -4.59354 24.0333
RightArm  6.37494 -6.0366 31.617
RightForeArm  0.101159 12.9397 3.92448
RightHand  -0.422672 4.92507 -5.05022
LeftUpLeg  10.2286 4.39035 -9.02972
LeftLeg  16.3346 0.183907 0.418536
LeftFoot  -19.1276 0.691432 8.44598
LeftToes  -8.31281e-010 4.41007e-011 3.74621e-011
705
root  -15.5433 38.3485 4.20355 -79.8235 -85.5322 72.2349
RightUpLeg  -19.0781 -9.46272 -8.49641
RightLeg  -1.01134 10.1564 -0.952472
RightFoot  -6.2974 -0.426583 8.69721
RightToes  -5.8209e-011 0 -3.6325e-017
Spine  8.3514 -2.17655 -2.51664
Spine1  10.1825 -2.80081 0.880452
HEad  -13.4923 3.39686 -4.97057
LeftShoulder1  0.111083 3.17736 -27.8834
LeftArm  0.71319 -0.0645036 -42.9682
LeftForeArm  17.7999 -32.5229 -6.1669
LeftHand  -0.0348535 5.15551 6.87332
RightShoulder  -0.367022 -4.68217 24.1291
RightArm  3.34948 -7.00756 31.9294
RightForeArm  -2.24134 10.2018 3.11757
RightHand  -0.454342 5.06201 -5.34456
LeftUpLeg  13.2193 4.62213 -8.69412
LeftLeg  15.7294 -0.473729 0.314798
LeftFoot  -21.029 0.823169 8.21459
LeftToes  -8.31281e-010 4.41007e-011 3.74621e-011
706
root  -17.1468 37.9742 3.98613 -75.7492 -85.6492 67.9294
RightUpLeg  -19.3988 -9.26879 -8.15604
RightLeg  -1.94827 7.54235 -0.593812
RightFoot  -7.40221 -0.358022 8.85672
RightToes  -5.8209e-011 0 -3.6325e-017
Spine  8.08184 -2.2577 -1.52488
Spine1  10.5826 -2.72486 0.559708
HEad  -13.9889 3.19174 -5.1892
LeftShoulder1  0.0827315 3.26183 -28.0229
LeftArm  1.31579 -2.42199 -43.208
LeftForeArm  16.8127 -31.0121 -5.84782
LeftHand  -0.000821276 5.75354 7.15533
RightShoulder  -0.421108 -4.84397 24.5093
RightArm  1.69417 -7.80449 32.6859
RightForeArm  -5.04458 7.82141 2.51395
RightHand  -0.461681 5.29846 -5.32003
LeftUpLeg  16.0124 4.10378 -8.20074
LeftLeg  16.3109 -0.261273 0.71141
LeftFoot  -23.4397 0.94503 7.57117
LeftToes  -8.31281e-010 4.41007e-011 3.74621e-011
707
root  -18.7962 37.6057 3.7422 -65.008 -85.9448 57.3747
RightUpLeg  -21.0197 -8.77388 -7.4059
RightLeg  3.53108 4.73286 0.0790078
RightFoot  -5.72717 -0.365157 6.79098
RightToes  -5.8209e-011 0 -3.6325e-017
Spine  7.67039 -2.55064 -0.667794
Spine1  10.7886 -3.18412 1.15476
HEad  -14.564 3.71264 -6.04236
LeftShoulder1  0.096017 3.22442 -28.214
LeftArm  1.9143 -3.38437 -43.5593
LeftForeArm  15.6006 -29.499 -5.55041
LeftHand  0.00572117 5.81762 7.81447
RightShoulder  -0.386477 -4.73532 24.4223
RightArm  0.425179 -8.68905 33.9858
RightForeArm  -5.37754 6.2692 1.97453
RightHand  -0.441185 4.86538 -5.28373
LeftUpLeg  18.0356 2.8853 -7.3448
LeftLeg  17.6852 0.216868 0.889385
LeftFoot  -25.4164 0.965817 6.58085
LeftToes  -8.31281e-010 4.41007e-011 3.74621e-011
708
root  -20.4724 37.3879 3.47168 -46.6733 -86.2429 39.4168
RightUpLeg  -22.9435 -8.27725 -6.12243
RightLeg  10.2856 3.04692 0.487036
RightFoot  -0.056027 -0.407644 4.18313
RightToes  -5.8209e-011 0 -3.6325e-017
Spine  7.49343 -2.84332 0.441802
Spine1  10.5946 -3.80702 2.50204
HEad  -15.1427 3.90075 -6.48837
LeftShoulder1  0.0927039 3.23714 -28.608
LeftArm  2.87967 -3.22372 -43.7358
LeftForeArm  13.9906 -28.4139 -5.38553
LeftHand  -0.0189774 5.41871 7.8654
RightShoulder  -0.44897 -4.92323 24.6972
RightArm  0.718196 -9.58393 34.8456
RightForeArm  -3.90765 5.80623 1.98594
RightHand  -0.402598 5.24585 -4.68642
LeftUpLeg  19.7046 1.09373 -5.95673
LeftLeg  19.2286 0.59013 0.705149
LeftFoot  -25.9322 0.686795 4.13969
LeftToes  -8.31281e-010 4.41007e-011 3.74621e-011
709
root  -22.1608 37.1952 3.21873 -15.4184 -86.6868 7.78528
RightUpLeg  -23.9738 -7.69842 -4.34058
RightLeg  16.4411 2.80078 0.789382
RightFoot  7.10026 -0.40688 2.75673
RightToes  -5.8209e-011 0 -3.6325e-017
Spine  8.41738 -3.28594 3.08675
Spine1  10.0562 -4.11806 2.7856
HEad  -15.8659 3.97718 -6.8468
LeftShoulder1  0.0805014 3.27385 -28.8967
LeftArm  3.94048 -2.57856 -44.033
LeftForeArm  13.0861 -27.3555 -5.1903
LeftHand  -0.0267528 5.30079 7.01429
RightShoulder  -0.538046 -5.16538 25.5989
RightArm  1.25206 -10.0883 35.4526
RightForeArm  -3.24785 5.99661 2.19371
RightHand  -0.494336 6.27809 -5.24807
LeftUpLeg  21.1402 0.387852 -3.19782
LeftLeg  22.8232 -0.701294 -0.00909684
LeftFoot  -25.4635 0.212915 0.527516
LeftToes  -8.31281e-010 4.41007e-011 3.74621e-011
710
root  -23.8948 36.956 3.02756 29.6372 -87.3745 -37.6018
RightUpLeg  -25.1995 -6.16226 -1.73355
RightLeg  24.0489 3.03333 1.25225
RightFoot  6.4916 -0.168446 1.31713
RightToes  -5.8209e-011 0 -3.6325e-017
Spine  9.4493 -3.60253 7.34867
Spine1  9.17254 -3.71651 1.9602
HEad  -16.3354 4.754 -7.50783
LeftShoulder1  0.0532578 3.35635 -29.9825
LeftArm  5.56424 -1.23442 -43.7818
LeftForeArm  11.7452 -26.4302 -5.05406
LeftHand  -0.0109639 5.59127 7.00905
RightShoulder  -0.418363 -4.80483 25.2412
RightArm  1.45334 -11.1035 37.2624
RightForeArm  -2.82307 6.66128 2.3678
RightHand  -0.466117 6.32707 -4.94552
LeftUpLeg  20.6621 1.3855 0.553369
LeftLeg  30.0094 -2.34178 -1.1589
LeftFoot  -23.1773 -0.291798 -4.39184
LeftToes  -8.31281e-010 4.41007e-011 3.74621e-011
711
root  -25.4353 36.8337 2.75722 53.0206 -86.4737 -60.5692
RightUpLeg  -26.0789 -5.88243 0.265477
RightLeg  29.5087 2.64152 1.37256
RightFoot  3.74806 0.191313 -1.23888
RightToes  -5.8209e-011 0 -3.6325e-017
Spine  9.64381 -3.82825 9.32592
Spine1  9.05398 -3.62514 2.68335
HEad  -16.5296 5.8217 -7.96213
LeftShoulder1  0.0420157 3.3879 -30.1928
LeftArm  7.45639 -0.26549 -44.421
LeftForeArm  10.1772 -24.769 -4.77082
LeftHand  -0.010046 5.63135 6.46561
RightShoulder  -0.400321 -4.73635 25.5197
RightArm  2.11964 -11.0532 38.9112
RightForeArm  -2.75236 7.68474 2.79458
RightHand  -0.54458 6.97088 -5.45504
LeftUpLeg  16.2837 2.55835 3.93008
LeftLeg  40.6658 -3.2128 -2.52263
LeftFoot  -15.1473 -0.206944 -9.35459
LeftToes  -8.31281e-010 4.41007e-011 3.74621e-011
712
root  -26.8242 36.82 2.45034 48.8438 -85.0674 -56.3427
RightUpLeg  -25.5393 -6.17543 1.48825
RightLeg  33.3174 1.73246 0.966712
RightFoot  -0.220371 0.179826 -1.83973
RightToes  -5.8209e-011 0 -3.6325e-017
Spine  10.6037 -4.10272 9.8466
Spine1  8.21048 -3.90893 4.2156
HEad  -15.8988 5.88632 -7.00464
LeftShoulder1  0.131026 3.14153 -30.0181
LeftArm  9.05631 0.225015 -45.564
LeftForeArm  8.65216 -23.4356 -4.5668
LeftHand  -0.0402737 5.04874 6.62949
RightShoulder  -0.408093 -4.74833 25.8459
RightArm  2.4757 -10.5872 40.4632
RightForeArm  -2.56529 10.0679 3.13153
RightHand  -0.640011 7.2685 -6.20861
LeftUpLeg  9.60351 2.42595 6.09889
LeftLeg  52.5236 -1.41349 -1.39175
LeftFoot  -0.479145 0.782565 -9.23802
LeftToes  -8.31281e-010 4.41007e-011 3.74621e-011
713
root  -28.096 36.8647 2.21264 45.5651 -83.5696 -53.6031
RightUpLeg  -23.6996 -6.5184 2.61956
RightLeg  35.5481 0.885196 0.412316
RightFoot  -3.53195 0.11275 -2.00538
RightToes  -5.8209e-011 0 -3.6325e-017
Spine  11.8107 -4.45058 10.9198
Spine1  7.9412 -3.95493 4.95619
HEad  -15.8607 5.27505 -6.49001
LeftShoulder1  0.163911 3.05262 -30.2139
LeftArm  10.4044 -0.0723827 -46.0299
LeftForeArm  8.55931 -23.8834 -4.66507
LeftHand  -0.0278009 5.2805 6.60697
RightShoulder  -0.426397 -4.79191 26.1635
RightArm  4.01582 -9.9236 41.6382
RightForeArm  -3.36641 14.6326 3.83315
RightHand  -0.735804 7.22267 -7.11942
LeftUpLeg  3.1427 2.11137 7.5803
LeftLeg  62.2507 0.478104 1.48589
LeftFoot  10.8037 0.929483 -4.79626
LeftToes  -8.31281e-010 4.41007e-011 3.74621e-011
714
root  -29.4278 37.1578 2.02168 43.4719 -83.7098 -52.0694
RightUpLeg  -20.7854 -6.33976 2.58716
RightLeg  35.8858 0.591772 0.186316
RightFoot  -6.05005 0.0613762 -2.20337
RightToes  -5.8209e-011 0 -3.6325e-017
Spine  12.5644 -4.28122 11.1554
Spine1  7.72111 -3.43477 4.19372
HEad  -15.3886 4.55437 -5.45881
LeftShoulder1  0.137321 3.12749 -30.3613
LeftArm  10.5756 -0.186248 -46.1005
LeftForeArm  9.89218 -25.7155 -4.99324
LeftHand  -0.0311808 5.23595 7.17734
RightShoulder  -0.464133 -4.88866 26.6343
RightArm  5.54569 -8.48387 42.5975
RightForeArm  -3.2152 20.263 4.54783
RightHand  -0.797069 7.06899 -7.73106
LeftUpLeg  -2.31504 3.30262 7.79729
LeftLeg  68.877 0.245558 1.47781
LeftFoot  6.2262 0.438235 -3.11657
LeftToes  -8.31281e-010 4.41007e-011 3.74621e-011
715
root  -30.7542 37.5103 1.88078 42.8771 -84.0703 -52.0047
RightUpLeg  -17.4004 -5.8481 2.45798
RightLeg  35.1845 0.326234 -0.0257008
RightFoot  -8.11733 0.00600361 -2.16278
RightToes  -5.8209e-011 0 -3.6325e-017
Spine  11.9919 -3.89781 11.7335
Spine1  8.87695 -2.76083 3.02152
HEad  -14.745 3.93712 -5.32902
LeftShoulder1  0.166403 3.05628 -31.0776
LeftArm  9.25699 -0.651009 -45.4402
LeftForeArm  11.2285 -28.5011 -5.55977
LeftHand  -0.0835777 4.37185 7.676
RightShoulder  -0.381956 -4.65016 26.3203
RightArm  6.69822 -6.12553 43.9725
RightForeArm  -3.73985 25.3708 5.62099
RightHand  -1.01789 8.64773 -8.77463
LeftUpLeg  -7.32314 4.48117 7.47288
LeftLeg  71.7983 -0.16468 0.373014
LeftFoot  4.24635 0.44216 -3.43573
LeftToes  -8.31281e-010 4.41007e-011 3.74621e-011
716
root  -32.0902 37.8373 1.80948 44.3314 -84.5615 -53.6171
RightUpLeg  -14.32 -5.47493 2.27994
RightLeg  34.2265 0.356148 -0.0106096
RightFoot  -9.92453 -0.0409836 -2.11046
RightToes  -5.8209e-011 0 -3.6325e-017
Spine  11.6089 -3.58922 12.6985
Spine1  8.81891 -1.9793 1.41758
HEad  -13.2695 3.40722 -5.52297
LeftShoulder1  0.197929 2.9723 -31.1352
LeftArm  6.63146 0.17476 -45.1904
LeftForeArm  13.0494 -32.0246 -6.3162
LeftHand  -0.087009 4.27953 7.43644
RightShoulder  -0.383909 -4.65546 26.3304
RightArm  7.80199 -3.53516 44.5902
RightForeArm  -1.72671 30.9993 6.89808
RightHand  -0.987419 8.57977 -8.5557
LeftUpLeg  -12.1691 5.94563 6.88495
LeftLeg  71.8221 -0.701243 -1.44571
LeftFoot  2.42214 0.455685 -3.8658
LeftToes  -8.31281e-010 4.41007e-011 3.74621e-011
717
root  -33.4096 38.1385 1.73866 47.5389 -85.2524 -57.0777
RightUpLeg  -11.07 -5.45104 1.96033
RightLeg  32.9862 0.843456 0.320224
RightFoot  -11.5364 -0.0819006 -2.10555
RightToes  -5.8209e-011 0 -3.6325e-017
Spine  11.3212 -3.08848 13.1058
Spine1  8.62151 -1.21026 0.0777957
HEad  -11.6025 3.11029 -5.81372
LeftShoulder1  0.184111 3.01008 -31.1951
LeftArm  4.72014 0.374475 -44.7651
LeftForeArm  14.0084 -35.6115 -7.20686
LeftHand  -0.0547628 4.92402 7.79181
RightShoulder  -0.354397 -4.568 26.236
RightArm  7.97978 -0.897665 44.7238
RightForeArm  0.897661 37.3794 8.51348
RightHand  -1.01062 9.04256 -8.48434
LeftUpLeg  -16.2536 7.35468 6.12795
LeftLeg  69.0936 -1.48929 -3.52703
LeftFoot  0.151206 0.295118 -2.9657
LeftToes  -8.31281e-010 4.41007e-011 3.74621e-011
